<?xml version="1.0" standalone="no"?>
<!DOCTYPE svg PUBLIC "-//W3C//DTD SVG 20010904//EN"
 "http://www.w3.org/TR/2001/REC-SVG-20010904/DTD/svg10.dtd">
<svg version="1.0" xmlns="http://www.w3.org/2000/svg"
 width="1280.000000pt" height="914.000000pt" viewBox="0 0 1280.000000 914.000000"
 preserveAspectRatio="xMidYMid meet">

<g transform="translate(0.000000,914.000000) scale(0.100000,-0.100000)"
fill="#000000" stroke="none">
<path d="M5995 9094 c-285 -72 -533 -305 -595 -559 -31 -128 -26 -274 14 -360
15 -33 39 -73 54 -89 43 -45 288 -254 390 -331 l93 -70 -38 -32 c-21 -18 -75
-58 -121 -90 -46 -32 -125 -87 -175 -122 -51 -36 -378 -256 -727 -489 -741
-496 -783 -525 -955 -653 -215 -161 -332 -272 -438 -414 -100 -135 -107 -154
-107 -302 l0 -128 64 -38 c56 -33 65 -43 75 -80 52 -197 75 -284 111 -427 24
-91 48 -170 54 -177 6 -7 38 -21 71 -31 l60 -18 -3 -66 c-4 -80 4 -88 102 -88
l65 0 35 -55 c21 -33 44 -56 58 -60 13 -2 124 -21 248 -41 l225 -36 134 -89
c73 -49 138 -89 145 -89 6 0 125 45 265 100 140 55 256 99 258 97 1 -2 -35
-55 -82 -117 -47 -62 -85 -117 -85 -122 0 -11 93 -9 345 6 201 12 213 14 285
45 167 71 311 160 765 471 165 113 352 241 415 283 63 43 140 95 170 117 30
21 228 159 440 307 1237 865 1675 1196 1858 1402 37 42 69 78 72 81 50 47 202
275 265 396 125 244 177 446 177 684 -1 218 -37 350 -141 512 -138 215 -343
359 -570 402 -46 9 -86 18 -90 20 -4 3 -70 12 -146 21 -456 53 -1002 -26
-1485 -213 -113 -44 -296 -129 -375 -174 -84 -49 -272 -165 -335 -208 -67 -45
-72 -40 -44 42 13 39 24 90 24 114 0 96 -71 247 -151 320 -95 87 -361 291
-414 318 -52 27 -71 31 -150 33 -49 1 -99 -1 -110 -3z m65 -167 c0 -7 -19 -23
-42 -34 -24 -12 -35 -22 -26 -22 9 -1 29 -6 45 -12 28 -12 28 -12 5 -18 -22
-6 -20 -8 25 -43 26 -20 64 -51 84 -68 l37 -30 78 13 c95 17 119 9 44 -13
-204 -61 -360 -222 -470 -485 -5 -11 -12 -35 -15 -52 -4 -18 -11 -33 -17 -33
-21 0 19 205 53 272 23 45 23 52 4 44 -20 -7 -19 0 3 32 29 42 34 52 25 52
-11 0 -84 -94 -114 -147 -13 -24 -28 -43 -33 -43 -5 0 -6 23 -3 51 4 31 2 58
-5 69 -9 14 -8 24 6 45 26 40 9 45 -25 7 -36 -40 -42 -40 -34 1 l6 32 -26 -30
c-26 -29 -26 -29 -20 -5 4 14 18 44 30 67 13 24 20 45 16 48 -10 6 -47 -35
-96 -105 -56 -79 -58 -81 -51 -31 16 107 131 266 251 350 108 76 265 128 265
88z m2979 -234 l24 -9 -25 -20 c-13 -10 -62 -39 -107 -64 -46 -25 -110 -63
-142 -85 -33 -22 -124 -83 -202 -136 -78 -53 -182 -122 -231 -153 -96 -62
-380 -282 -559 -432 -61 -52 -115 -94 -120 -94 -5 0 -47 34 -93 76 l-84 77
107 79 c60 44 140 103 178 131 39 28 115 87 170 132 55 44 125 99 155 121 30
23 64 50 76 60 11 11 86 77 167 147 80 71 153 139 161 152 9 13 26 26 38 29
39 8 462 -1 487 -11z m-639 -11 c0 -13 -261 -242 -390 -342 -52 -40 -97 -76
-100 -80 -18 -23 -232 -172 -370 -259 -168 -105 -266 -168 -286 -183 -7 -5
-34 12 -70 44 -33 29 -72 62 -88 74 -16 12 -26 26 -22 32 3 6 86 59 184 118
270 164 287 175 379 239 98 68 238 200 252 238 5 13 20 27 33 29 13 3 61 16
108 28 71 19 313 66 358 69 6 1 12 -2 12 -7z m905 -53 c30 -11 55 -23 55 -27
0 -11 -176 -123 -300 -192 -167 -91 -326 -199 -395 -267 -34 -33 -113 -125
-177 -204 -63 -79 -136 -166 -162 -193 -52 -56 -56 -72 -22 -78 59 -12 229 56
376 150 30 19 125 71 210 115 245 125 413 224 462 270 28 26 135 104 173 127
22 13 50 32 62 43 12 11 29 17 37 14 18 -7 106 -186 106 -215 0 -29 -92 -107
-175 -148 -38 -19 -120 -67 -182 -108 -67 -44 -172 -100 -264 -140 -240 -106
-340 -170 -502 -326 -80 -76 -182 -150 -208 -150 -5 0 -43 25 -85 56 -102 76
-143 88 -259 81 -51 -4 -99 -8 -106 -9 -7 -2 -17 13 -23 34 -8 26 -26 48 -62
75 -28 21 -68 53 -89 72 l-39 34 35 28 c19 16 59 48 89 71 30 24 84 68 120 98
36 30 81 67 100 82 19 15 69 53 110 85 41 32 158 113 260 180 102 68 231 155
288 194 57 39 158 104 225 143 67 39 142 86 167 104 51 37 79 37 175 1z m202
-114 c29 -30 53 -58 53 -63 0 -5 -38 -33 -86 -63 -47 -30 -122 -82 -167 -115
-84 -63 -247 -158 -437 -254 -58 -29 -150 -80 -205 -113 -89 -53 -173 -92
-181 -84 -1 1 53 66 122 144 135 154 171 183 414 335 168 104 275 176 343 230
27 21 58 38 70 38 12 0 43 -23 74 -55z m-1763 -6 c-31 -34 -286 -205 -504
-339 -74 -46 -159 -99 -188 -118 -58 -39 -46 -42 -125 28 l-28 26 108 71 c201
131 390 231 593 313 100 40 123 47 154 49 17 1 16 -3 -10 -30z m-1334 -124
c45 -23 36 -35 -19 -28 -42 5 -57 2 -95 -21 -80 -47 -146 -151 -146 -231 0
-36 -13 -47 -24 -19 -26 67 13 172 89 243 75 69 136 86 195 56z m91 -197 c43
-31 259 -206 269 -218 3 -3 41 -35 85 -70 44 -36 109 -90 145 -120 36 -30 86
-71 110 -91 25 -20 74 -61 109 -90 36 -30 112 -94 170 -142 58 -49 115 -96
126 -105 11 -10 37 -30 58 -46 20 -16 37 -32 37 -37 0 -13 -81 -84 -96 -84 -8
0 -36 18 -65 40 -166 131 -538 435 -605 496 -75 67 -117 90 -153 83 -44 -9
-65 -44 -65 -112 -1 -46 -4 -57 -18 -60 -16 -3 -18 6 -18 70 -1 119 -11 191
-30 215 -9 12 -44 44 -76 70 -88 71 -94 77 -104 114 -14 47 3 95 38 108 38 13
35 14 83 -21z m3248 -220 c1 -31 -4 -68 -10 -81 -6 -13 -43 -43 -82 -67 -74
-46 -172 -111 -242 -162 -22 -16 -80 -52 -130 -80 -135 -75 -285 -189 -414
-313 -113 -107 -192 -175 -205 -175 -10 0 -106 72 -145 109 -18 17 -37 31 -42
31 -5 0 -9 5 -9 10 0 6 4 10 9 10 15 0 108 74 179 142 133 127 244 199 479
308 122 57 263 139 536 315 72 46 75 44 76 -47z m-19 -201 c0 -15 -73 -227
-96 -275 -28 -61 -33 -66 -129 -124 -246 -151 -370 -241 -544 -396 -80 -72
-160 -132 -175 -132 -2 0 -7 19 -11 43 -4 23 -16 63 -27 90 l-21 48 119 112
c263 250 338 307 534 409 30 15 115 73 188 128 111 83 162 114 162 97z m-2297
-37 c19 -16 38 -30 42 -30 11 0 105 -81 105 -91 0 -5 -11 -11 -25 -15 -21 -5
-35 2 -78 42 -29 27 -68 62 -86 78 -26 22 -30 30 -20 37 21 13 25 12 62 -21z
m-993 -15 c0 -25 -6 -37 -22 -46 -88 -47 -301 -217 -526 -419 -356 -318 -383
-336 -652 -445 -225 -91 -296 -135 -550 -338 -94 -76 -187 -132 -330 -200 -53
-25 -210 -122 -350 -214 -277 -184 -350 -229 -349 -216 2 19 236 221 393 339
93 70 307 219 475 332 168 113 349 235 401 272 52 37 232 159 400 272 410 275
553 375 740 518 78 59 103 74 199 111 59 23 117 47 131 55 36 19 40 18 40 -21z
m7 -246 c1 -52 5 -107 7 -122 4 -24 -1 -32 -26 -45 -17 -10 -87 -59 -155 -109
-69 -51 -129 -93 -134 -93 -5 0 -9 -8 -9 -18 0 -41 -194 -190 -380 -292 -70
-39 -130 -70 -134 -70 -3 0 -55 -27 -116 -61 -61 -33 -152 -79 -203 -101 -287
-124 -476 -235 -746 -438 -279 -211 -311 -232 -490 -318 -158 -76 -204 -101
-323 -178 l-67 -44 -60 36 c-34 20 -61 43 -61 50 0 22 35 51 102 85 70 35 282
166 458 281 64 42 190 113 280 159 196 98 257 135 329 201 51 46 142 116 241
185 53 36 180 95 334 153 126 48 199 86 275 144 30 22 75 56 100 75 47 35 94
77 241 216 47 44 120 109 162 144 100 84 350 262 362 258 6 -2 11 -46 13 -98z
m411 58 c57 -37 76 -68 74 -128 -1 -61 -30 -110 -84 -147 -76 -50 -198 -25
-241 49 -31 56 -15 169 31 206 71 58 148 64 220 20z m842 -17 c25 -22 48 -40
51 -40 11 0 28 -50 23 -65 -7 -17 -24 -21 -24 -5 0 15 -42 50 -62 50 -10 0
-18 6 -18 13 0 12 -11 22 -50 48 -13 8 -12 11 4 24 26 20 24 20 76 -25z m30
-100 c0 -5 -2 -10 -4 -10 -3 0 -8 5 -11 10 -3 6 -1 10 4 10 6 0 11 -4 11 -10z
m1761 -157 c-17 -21 -65 -79 -106 -130 -76 -93 -237 -243 -380 -353 -177 -136
-227 -172 -231 -168 -2 3 3 30 11 62 8 31 15 68 15 81 0 18 12 30 53 53 29 16
115 84 192 151 162 141 460 359 473 346 3 -2 -10 -21 -27 -42z m-1481 12 c0
-3 -21 -15 -47 -28 -62 -29 -66 -45 -12 -49 40 -3 70 -28 33 -28 -9 0 25 -33
77 -75 102 -80 112 -83 199 -60 82 22 190 18 190 -7 0 -5 -9 -7 -19 -3 -29 9
-136 -22 -214 -61 -131 -65 -225 -151 -309 -279 -58 -89 -70 -115 -97 -197
-13 -38 -25 -68 -28 -68 -23 0 31 252 68 322 6 11 5 18 -4 21 -9 3 -6 16 10
46 20 38 20 41 3 41 -18 0 -86 -73 -104 -111 -10 -20 -26 -26 -26 -8 0 6 5 20
11 31 8 15 8 26 -1 42 -9 19 -8 29 11 61 32 54 4 41 -48 -24 -42 -50 -55 -49
-31 4 6 14 8 28 5 32 -9 9 -57 -37 -57 -54 0 -7 -5 -13 -11 -13 -16 0 -1 39
33 88 17 24 27 46 23 50 -9 9 -133 -122 -145 -154 -10 -24 -30 -33 -30 -13 0
27 57 150 98 212 76 115 217 231 325 268 50 18 97 24 97 14z m-619 -94 c14 -1
34 -8 45 -17 10 -8 13 -13 6 -9 -23 12 -156 6 -217 -10 -33 -9 -98 -32 -145
-52 -171 -71 -223 -84 -310 -77 -67 6 -84 11 -114 36 -21 17 -39 44 -45 65
-13 47 -1 66 13 22 9 -27 22 -39 61 -58 27 -13 66 -26 86 -28 49 -7 192 23
259 53 106 49 238 83 305 78 17 -1 42 -2 56 -3z m-933 -88 c0 -32 4 -94 8
-138 l9 -79 55 -28 c108 -54 171 -79 198 -79 85 1 211 -7 245 -15 18 -4 27 -2
27 6 0 8 8 10 22 7 12 -4 28 -1 35 5 10 8 17 8 24 1 8 -8 -24 -39 -107 -105
-165 -130 -169 -132 -197 -113 -29 20 -487 476 -486 484 0 9 142 110 155 111
7 0 12 -22 12 -57z m-217 -209 c46 -48 162 -163 257 -257 95 -94 175 -182 179
-195 17 -67 -142 -252 -442 -514 -166 -145 -302 -299 -410 -463 -29 -44 -63
-89 -74 -99 -12 -11 -21 -23 -21 -28 0 -8 -16 -30 -91 -123 -29 -35 -99 -118
-158 -185 -104 -119 -365 -382 -436 -438 -38 -30 -91 -75 -116 -99 l-47 -45
-64 41 c-36 23 -73 41 -82 41 -32 0 -15 21 92 109 119 98 157 138 252 257 210
264 197 248 399 459 42 44 99 107 126 140 28 33 52 62 55 65 3 3 28 32 55 65
49 59 244 285 255 295 3 3 20 23 39 45 19 22 65 74 102 115 37 41 78 89 90
105 13 17 26 32 29 35 15 12 120 170 145 218 34 65 29 97 -19 117 -51 22 -73
23 -180 14 -190 -16 -451 -105 -821 -279 -60 -28 -148 -67 -195 -86 -234 -97
-475 -229 -602 -331 -182 -147 -391 -293 -543 -380 -38 -22 -103 -59 -143 -82
-41 -24 -76 -41 -79 -38 -6 7 -43 148 -43 169 0 19 145 107 348 209 171 88
373 222 627 417 158 123 186 137 890 483 192 94 329 174 450 263 49 36 90 66
91 66 1 0 39 -39 85 -86z m1084 -221 c0 -49 3 -100 7 -115 7 -24 2 -31 -65
-81 -131 -101 -206 -182 -402 -442 -54 -71 -119 -154 -144 -183 -59 -70 -218
-207 -356 -307 -277 -200 -263 -186 -614 -634 -29 -37 -32 -41 -111 -131 -62
-71 -248 -235 -277 -244 -235 -70 -366 -107 -375 -104 -7 3 24 32 67 67 99 77
425 398 525 516 48 56 297 380 316 410 79 127 246 309 449 490 211 189 342
335 391 438 13 28 22 34 50 35 49 2 84 23 232 141 163 129 295 231 302 231 3
0 5 -39 5 -87z m1116 67 c58 -31 64 -147 13 -241 -55 -101 -166 -188 -239
-189 -36 0 -89 31 -105 61 -20 36 -7 129 25 194 62 123 227 217 306 175z
m-2166 -256 c10 -10 13 -24 9 -38 -17 -56 -177 -258 -379 -480 -5 -6 -44 -51
-85 -101 -41 -49 -77 -92 -80 -95 -3 -3 -18 -21 -34 -40 -15 -19 -45 -53 -65
-75 -20 -22 -63 -71 -96 -110 -33 -38 -119 -130 -191 -205 -118 -121 -172
-183 -254 -290 -171 -223 -210 -262 -475 -474 -23 -18 -30 -19 -107 -7 -133
20 -129 14 -57 88 35 36 100 90 144 121 109 76 233 203 343 352 51 69 105 141
120 160 29 39 106 117 197 200 63 58 125 124 187 200 72 89 128 160 128 164 0
2 18 31 40 64 60 89 52 132 -23 132 -72 0 -228 -61 -487 -190 -180 -90 -220
-112 -449 -253 -63 -39 -155 -93 -206 -121 -93 -52 -389 -248 -518 -344 l-72
-53 -22 78 c-34 124 -43 110 129 208 191 109 349 216 537 366 80 64 171 133
201 153 65 44 338 179 488 241 59 24 190 81 292 128 319 145 527 210 757 236
6 0 19 -6 28 -15z m1128 -62 c15 -21 45 -55 67 -77 22 -21 40 -42 40 -46 0 -3
-25 -23 -57 -44 -55 -37 -207 -181 -254 -241 -202 -260 -354 -438 -440 -515
-107 -96 -296 -237 -392 -293 -63 -36 -204 -151 -248 -201 -45 -51 -93 -121
-128 -188 -32 -60 -140 -214 -167 -239 -23 -20 -154 -90 -154 -82 0 3 9 17 20
31 11 14 20 35 20 47 0 12 7 31 15 42 8 10 15 22 15 26 0 3 -35 -4 -77 -17
-43 -13 -78 -23 -80 -21 -2 1 29 35 67 75 64 68 247 289 350 426 97 128 205
224 495 440 170 127 282 231 355 332 158 216 197 267 262 343 65 74 243 239
259 240 4 0 18 -17 32 -38z m253 -244 c7 -11 -4 -22 -129 -131 -84 -74 -148
-154 -228 -287 -71 -118 -125 -195 -184 -258 -22 -24 -46 -53 -54 -65 -7 -12
-70 -60 -139 -107 -131 -89 -510 -355 -622 -436 -104 -76 -280 -196 -280 -191
0 10 111 189 147 237 54 72 138 137 348 271 255 163 414 317 636 619 130 176
214 266 322 347 l99 73 39 -31 c21 -17 42 -35 45 -41z m127 -92 c18 -13 51
-34 75 -46 23 -13 42 -26 42 -29 -1 -3 -44 -35 -97 -71 -147 -100 -423 -294
-475 -334 -25 -20 -48 -36 -51 -36 -3 0 18 36 46 80 157 245 172 264 283 362
60 54 117 97 127 98 10 0 33 -11 50 -24z m-2251 -165 c-37 -62 -170 -229 -237
-296 -38 -38 -106 -99 -150 -135 -82 -68 -131 -127 -224 -274 -71 -113 -192
-241 -318 -338 -57 -44 -148 -122 -201 -174 -53 -51 -104 -93 -113 -94 -9 0
-33 25 -53 55 l-36 55 37 24 c47 30 173 152 239 230 27 32 54 64 59 70 6 6 56
63 112 126 55 63 117 131 138 150 43 41 71 98 55 114 -19 19 -233 -100 -487
-271 -136 -91 -278 -190 -316 -219 -62 -49 -70 -52 -97 -42 -23 7 -32 19 -40
50 -6 22 -10 43 -8 48 12 32 383 285 593 405 66 37 148 88 183 112 212 148
777 432 859 433 22 0 22 0 5 -29z m-870 -654 c-6 -7 -42 -44 -80 -83 -38 -39
-105 -114 -150 -166 -125 -146 -301 -288 -357 -288 l-31 0 9 73 c11 85 7 82
182 194 66 42 122 80 125 83 10 12 295 200 304 200 5 0 4 -6 -2 -13z"/>
<path d="M5810 8564 c0 -8 5 -12 10 -9 6 4 8 11 5 16 -9 14 -15 11 -15 -7z"/>
<path d="M8110 7630 c0 -5 5 -10 11 -10 5 0 7 5 4 10 -3 6 -8 10 -11 10 -2 0
-4 -4 -4 -10z"/>
<path d="M8060 7560 c0 -5 5 -10 10 -10 6 0 10 5 10 10 0 6 -4 10 -10 10 -5 0
-10 -4 -10 -10z"/>
<path d="M6430 8091 c0 -15 31 -45 120 -117 142 -115 200 -157 208 -149 9 9
-84 95 -193 179 -99 76 -135 99 -135 87z"/>
<path d="M8945 7460 c3 -5 8 -10 11 -10 2 0 4 5 4 10 0 6 -5 10 -11 10 -5 0
-7 -4 -4 -10z"/>
<path d="M5400 6910 c0 -5 4 -10 9 -10 6 0 13 5 16 10 3 6 -1 10 -9 10 -9 0
-16 -4 -16 -10z"/>
<path d="M4170 6050 c0 -5 5 -10 10 -10 6 0 10 5 10 10 0 6 -4 10 -10 10 -5 0
-10 -4 -10 -10z"/>
<path d="M6731 7479 c-82 -32 -94 -135 -21 -171 115 -57 214 108 100 167 -33
17 -45 18 -79 4z"/>
<path d="M7818 7043 c7 -3 16 -2 19 1 4 3 -2 6 -13 5 -11 0 -14 -3 -6 -6z"/>
<path d="M6830 6731 c0 -8 -6 -11 -16 -7 -20 8 -50 -9 -70 -39 -24 -37 5 -85
53 -85 24 0 73 56 73 82 0 20 -39 68 -40 49z"/>
<path d="M6142 6750 c-8 -13 -8 -20 -2 -20 6 0 13 7 17 15 9 24 -1 27 -15 5z"/>
<path d="M6180 5580 c0 -5 5 -10 11 -10 5 0 7 5 4 10 -3 6 -8 10 -11 10 -2 0
-4 -4 -4 -10z"/>
<path d="M8296 6639 c-60 -16 -126 -102 -126 -164 0 -51 15 -73 56 -81 27 -5
38 0 73 31 111 101 110 244 -3 214z"/>
<path d="M6055 6170 c-3 -5 -1 -10 4 -10 6 0 11 5 11 10 0 6 -2 10 -4 10 -3 0
-8 -4 -11 -10z"/>
<path d="M6040 4960 c0 -5 5 -10 10 -10 6 0 10 5 10 10 0 6 -4 10 -10 10 -5 0
-10 -4 -10 -10z"/>
<path d="M4990 5649 c0 -5 5 -7 10 -4 6 3 10 8 10 11 0 2 -4 4 -10 4 -5 0 -10
-5 -10 -11z"/>
<path d="M6675 4245 c-44 -44 -27 -89 40 -106 50 -13 63 -25 46 -42 -9 -9 -19
-8 -42 6 -17 9 -42 17 -55 17 -24 0 -24 -1 -10 -29 18 -34 33 -41 90 -41 56 0
86 22 86 64 0 38 -12 51 -55 61 -58 13 -65 16 -65 30 0 21 31 27 56 10 54 -35
88 -5 38 34 -38 30 -98 28 -129 -4z"/>
<path d="M6900 4245 c0 -22 4 -25 35 -25 l35 0 0 -85 0 -85 30 0 30 0 0 85 0
85 35 0 c31 0 35 3 35 25 l0 25 -100 0 -100 0 0 -25z"/>
<path d="M7170 4160 l0 -111 28 3 c23 3 27 7 25 31 -3 40 39 38 64 -3 13 -22
25 -30 45 -30 33 0 34 5 8 45 -18 27 -18 31 -3 47 23 26 21 75 -5 101 -17 17
-37 22 -92 25 l-70 4 0 -112z m120 50 c23 -15 -1 -45 -36 -45 -22 0 -29 5 -30
20 0 11 1 23 3 28 6 10 45 9 63 -3z"/>
<path d="M7440 4160 l0 -110 85 0 c84 0 85 0 85 25 0 24 -3 25 -55 25 -42 0
-55 3 -55 15 0 11 12 15 45 15 41 0 45 2 45 25 0 23 -4 25 -45 25 -38 0 -45 3
-45 20 0 18 7 20 55 20 52 0 55 1 55 25 0 25 -1 25 -85 25 l-85 0 0 -110z"/>
<path d="M7694 4257 c-3 -8 -3 -56 -2 -108 l3 -94 83 -3 c82 -3 82 -3 82 23 0
24 -3 25 -55 25 -42 0 -55 3 -55 15 0 11 11 15 43 15 50 0 57 4 50 31 -4 15
-14 19 -49 19 -37 0 -44 3 -44 20 0 18 7 20 55 20 52 0 55 1 55 25 0 25 -1 25
-80 25 -58 0 -82 -4 -86 -13z"/>
<path d="M7930 4245 c0 -22 4 -25 35 -25 l35 0 0 -85 c0 -84 0 -85 25 -85 24
0 24 2 27 83 l3 82 33 3 c26 3 32 7 32 28 0 24 -1 24 -95 24 -95 0 -95 0 -95
-25z"/>
<path d="M8310 4263 c0 -4 15 -53 34 -108 31 -95 34 -100 61 -100 26 0 30 6
48 58 10 32 21 56 23 54 2 -2 12 -28 23 -58 16 -48 21 -54 46 -54 27 0 30 5
62 100 18 54 33 103 33 108 0 4 -12 7 -27 5 -23 -3 -29 -12 -48 -68 l-22 -65
-22 68 c-19 56 -26 67 -45 67 -18 0 -26 -11 -46 -67 l-23 -67 -21 65 c-19 56
-24 64 -48 67 -16 2 -28 0 -28 -5z"/>
<path d="M8720 4160 l0 -110 80 0 c79 0 80 0 80 25 0 24 -3 25 -55 25 -41 0
-55 4 -55 14 0 11 14 16 48 18 40 3 47 6 50 26 3 20 0 22 -47 22 -44 0 -51 3
-51 20 0 18 7 20 55 20 52 0 55 1 55 25 0 25 -1 25 -80 25 l-80 0 0 -110z"/>
<path d="M9031 4233 c-23 -47 -71 -163 -71 -175 0 -4 12 -8 26 -8 17 0 28 6
31 20 4 17 14 20 53 20 40 0 50 -4 55 -20 4 -14 15 -20 36 -20 29 0 29 0 15
33 -7 17 -28 67 -46 110 -28 65 -36 77 -56 77 -17 0 -29 -10 -43 -37z m69 -99
c0 -2 -11 -4 -25 -4 -28 0 -30 6 -14 47 l11 28 14 -34 c8 -18 14 -35 14 -37z"/>
<path d="M9264 4257 c-3 -8 -3 -56 -2 -108 l3 -94 28 -3 c24 -3 27 0 27 27 0
26 4 31 23 31 15 0 29 -11 40 -30 14 -23 25 -30 48 -30 34 0 35 6 9 40 -24 30
-24 37 -5 56 30 31 17 87 -26 109 -36 19 -138 20 -145 2z m124 -61 c5 -22 -13
-36 -45 -36 -19 0 -23 5 -23 31 0 28 2 30 32 27 23 -2 34 -9 36 -22z"/>
<path d="M2700 4070 l0 -90 60 0 c47 0 60 3 60 15 0 11 -12 15 -50 15 -43 0
-50 3 -50 20 0 17 7 20 45 20 33 0 45 4 45 15 0 11 -12 15 -45 15 -41 0 -45 2
-45 25 0 23 3 25 50 25 38 0 50 4 50 15 0 12 -13 15 -60 15 l-60 0 0 -90z"/>
<path d="M2918 4149 c-21 -12 -24 -62 -5 -77 6 -6 28 -14 47 -19 25 -7 35 -15
35 -29 0 -28 -50 -32 -67 -5 -13 22 -38 29 -38 11 0 -22 41 -50 73 -50 47 0
69 19 65 55 -3 26 -9 32 -50 44 -49 15 -65 42 -32 55 24 9 29 8 55 -15 28 -24
40 -7 13 22 -19 21 -68 25 -96 8z"/>
<path d="M3090 4145 c0 -10 10 -15 30 -15 l30 0 0 -75 c0 -60 3 -75 15 -75 12
0 15 15 15 75 l0 75 30 0 c20 0 30 5 30 15 0 12 -15 15 -75 15 -60 0 -75 -3
-75 -15z"/>
<path d="M3488 4138 c-20 -20 -21 -23 -5 -26 9 -2 24 4 33 12 12 12 20 13 35
6 10 -6 19 -15 19 -20 0 -4 -20 -32 -45 -61 -25 -29 -45 -56 -45 -61 0 -12
108 -10 115 2 4 6 -8 10 -29 10 -20 0 -36 3 -36 6 0 4 14 22 30 41 31 35 39
80 18 101 -19 19 -66 14 -90 -10z"/>
<path d="M3685 4135 c-51 -50 -20 -155 46 -155 44 0 67 16 78 55 26 94 -61
164 -124 100z m94 -33 c20 -48 -5 -102 -48 -102 -21 0 -41 33 -41 69 0 44 14
61 51 61 20 0 30 -7 38 -28z"/>
<path d="M3908 4148 c-32 -11 -39 -39 -8 -31 18 5 20 0 20 -56 0 -59 -1 -61
-26 -61 -14 0 -23 -4 -19 -10 3 -5 31 -10 61 -10 30 0 54 5 54 10 0 6 -9 10
-20 10 -18 0 -20 7 -20 80 0 44 -3 80 -7 79 -5 0 -20 -5 -35 -11z"/>
<path d="M4060 4115 c0 -44 0 -45 34 -45 40 0 65 -24 49 -48 -14 -23 -52 -28
-59 -8 -7 17 -34 22 -34 7 0 -20 33 -41 64 -41 38 0 59 19 59 55 0 35 -19 53
-56 57 -21 2 -33 9 -35 21 -3 14 4 17 42 17 34 0 46 4 46 15 0 12 -13 15 -55
15 l-55 0 0 -45z"/>
<path d="M3275 4001 c-7 -12 12 -24 25 -16 11 7 4 25 -10 25 -5 0 -11 -4 -15
-9z"/>
<path d="M2680 3862 c0 -4 41 -77 91 -162 l91 -155 212 -845 211 -845 200 0
199 0 123 410 c174 583 177 594 184 587 4 -4 18 -50 32 -102 24 -87 143 -515
219 -787 l31 -113 197 0 196 0 123 448 c68 246 151 544 183 662 176 637 150
564 255 737 51 85 93 159 93 164 0 5 -142 9 -350 9 -218 0 -350 -4 -350 -10 0
-5 28 -79 62 -165 l62 -156 -98 -397 c-54 -218 -102 -401 -106 -405 -4 -5 -33
92 -64 215 -79 316 -222 870 -230 896 -7 21 -11 22 -176 22 l-168 0 -11 -32
c-9 -28 -148 -511 -284 -985 -22 -79 -42 -142 -43 -140 -2 2 -42 165 -89 363
-47 197 -89 375 -95 395 -15 56 -14 63 50 225 33 83 60 157 60 163 0 8 -112
11 -405 11 -223 0 -405 -4 -405 -8z"/>
<path d="M5372 3858 c-5 -7 -42 -77 -81 -155 l-71 -143 0 -707 0 -708 78 -145
77 -145 535 0 535 0 77 150 77 150 0 705 0 705 -77 150 -77 150 -531 3 c-418
2 -534 -1 -542 -10z m713 -378 c13 -25 15 -110 15 -624 0 -430 -3 -602 -12
-621 l-11 -25 -167 0 -167 0 -11 25 c-9 19 -12 191 -12 621 0 514 2 599 15
624 l16 30 159 0 159 0 16 -30z"/>
<path d="M6738 3721 l-78 -148 0 -712 0 -712 76 -150 75 -149 535 2 535 3 80
154 79 155 0 693 0 693 -80 160 -80 160 -533 0 -532 0 -77 -149z m785 -246
c15 -32 17 -93 17 -619 0 -397 -3 -593 -11 -615 l-11 -31 -167 0 -168 0 -11
25 c-9 19 -12 191 -12 621 0 514 2 599 15 624 l16 30 157 0 158 0 17 -35z"/>
<path d="M8080 3865 c0 -3 36 -77 80 -165 l80 -160 0 -683 0 -683 -80 -156
c-44 -86 -80 -159 -80 -162 0 -3 311 -5 692 -4 l692 3 78 149 78 149 0 706 0
706 -78 150 -77 150 -692 3 c-381 1 -693 0 -693 -3z m1025 -385 c13 -25 15
-110 15 -624 0 -362 -4 -605 -10 -620 l-10 -26 -210 0 -211 0 31 58 30 57 0
535 0 535 -25 47 c-14 26 -25 52 -25 58 0 6 67 10 200 10 l199 0 16 -30z"/>
<path d="M3520 1400 c0 -137 3 -250 6 -250 4 0 60 28 125 62 l118 62 3 51 3
50 48 3 47 3 0 -527 0 -527 -62 -118 c-34 -65 -59 -121 -56 -124 3 -3 144 -4
315 -3 l310 3 -58 120 -59 120 0 528 0 527 45 0 45 0 0 -53 0 -53 120 -59 120
-59 0 -418 0 -418 60 -120 60 -120 421 2 421 3 59 115 59 115 0 548 0 547 -60
120 -60 120 -418 0 -417 0 -52 -102 -52 -103 -1 103 0 102 -545 0 -545 0 0
-250z m1748 -55 c13 -27 18 -918 6 -962 -6 -22 -10 -23 -140 -23 -122 0 -134
2 -144 19 -15 29 -14 932 2 966 11 25 12 25 138 25 126 0 127 0 138 -25z"/>
<path d="M5598 1618 c10 -18 43 -73 73 -123 l54 -90 166 -660 165 -660 157 -3
156 -3 9 33 c29 100 178 596 201 668 l28 85 16 -50 c8 -27 50 -176 92 -330 42
-154 85 -307 95 -340 l18 -60 154 -3 155 -2 56 207 c32 115 75 271 96 348 79
284 164 592 185 671 15 55 42 115 85 187 35 59 66 107 70 107 3 -1 29 -47 56
-103 l50 -102 -1 -535 -1 -535 -61 -122 -62 -123 276 0 c152 0 274 3 272 8 -2
4 -29 57 -60 118 l-57 112 -3 251 c-2 138 0 250 4 249 4 -2 103 -167 221 -368
l212 -365 148 -3 147 -3 0 662 0 662 60 114 c33 62 60 117 60 123 0 6 -97 10
-275 10 l-274 0 64 -131 65 -132 0 -261 c-1 -222 -3 -258 -14 -243 -8 10 -108
186 -222 392 l-209 375 -462 0 c-255 0 -463 -4 -463 -8 0 -5 20 -60 45 -123
25 -63 45 -122 45 -132 0 -9 -35 -155 -77 -324 -51 -205 -79 -300 -84 -287 -4
10 -34 127 -68 259 -34 132 -82 323 -109 425 l-47 185 -135 0 -135 0 -122
-425 c-67 -234 -125 -436 -128 -449 -3 -13 -8 -22 -10 -20 -2 3 -38 147 -79
322 l-76 317 44 108 c24 59 47 117 50 130 l7 22 -321 0 -322 0 20 -32z"/>
</g>
</svg>
