<?xml version="1.0" standalone="no"?>
<!DOCTYPE svg PUBLIC "-//W3C//DTD SVG 20010904//EN"
 "http://www.w3.org/TR/2001/REC-SVG-20010904/DTD/svg10.dtd">
<svg version="1.0" xmlns="http://www.w3.org/2000/svg"
 width="715.000000pt" height="430.000000pt" viewBox="0 0 715.000000 430.000000"
 preserveAspectRatio="xMidYMid meet">

<g transform="translate(0.000000,430.000000) scale(0.100000,-0.100000)"
fill="#000000" stroke="none">
<path d="M4100 4288 c-63 -34 -44 -110 32 -125 54 -11 67 -43 18 -43 -18 0
-33 6 -36 15 -4 8 -18 15 -34 15 -23 0 -27 -4 -23 -19 9 -36 42 -56 93 -56 56
0 90 24 90 65 0 34 -26 57 -76 68 -46 9 -53 35 -11 40 15 2 27 -1 27 -7 0 -6
14 -11 30 -11 18 0 30 5 30 13 0 40 -93 69 -140 45z"/>
<path d="M4312 4268 c2 -18 11 -24 36 -26 l32 -3 0 -78 c0 -67 3 -79 18 -83
36 -10 42 1 42 82 l0 79 33 3 c24 2 33 8 35 26 3 22 1 22 -98 22 -99 0 -101 0
-98 -22z"/>
<path d="M4580 4186 c0 -74 4 -105 13 -108 23 -9 37 4 37 33 0 40 39 41 63 0
18 -30 47 -44 67 -31 10 6 7 16 -10 40 -21 30 -21 32 -4 51 25 28 22 78 -5
101 -18 13 -40 18 -92 18 l-69 0 0 -104z m125 29 c0 -16 -8 -21 -37 -23 -35
-3 -38 -1 -38 23 0 24 3 26 38 23 29 -2 37 -7 37 -23z"/>
<path d="M4850 4186 l0 -104 73 -4 c86 -4 97 -2 97 23 0 16 -8 19 -55 19 -48
0 -55 2 -55 20 0 17 7 20 45 20 41 0 45 2 45 25 0 23 -4 25 -45 25 -39 0 -45
3 -45 20 0 19 5 20 41 16 51 -6 69 1 69 25 0 17 -8 19 -85 19 l-85 0 0 -104z"/>
<path d="M5102 4184 l3 -105 80 -2 c76 -2 80 -1 83 21 3 20 0 22 -52 22 -49 0
-56 2 -56 20 0 17 7 20 45 20 41 0 45 2 45 25 0 23 -4 25 -46 25 -38 0 -45 3
-42 18 3 13 14 17 53 17 44 0 50 3 53 23 3 21 1 22 -83 22 l-86 0 3 -106z"/>
<path d="M5340 4265 c0 -22 4 -25 35 -25 l34 0 3 -82 c3 -75 5 -83 23 -83 18
0 20 8 23 83 l3 82 34 0 c31 0 35 3 35 25 0 25 0 25 -95 25 -95 0 -95 0 -95
-25z"/>
<path d="M5723 4278 c2 -7 17 -53 33 -101 42 -130 73 -138 109 -29 9 28 18 52
20 52 2 0 12 -25 22 -56 32 -104 67 -92 108 36 16 47 30 91 33 98 3 8 -6 12
-25 12 -28 0 -31 -4 -48 -60 -19 -62 -29 -68 -39 -23 -14 61 -28 83 -51 83
-19 0 -27 -11 -46 -62 l-23 -62 -20 62 c-18 57 -22 62 -49 62 -19 0 -28 -4
-24 -12z"/>
<path d="M6130 4183 l0 -108 78 1 c71 1 77 2 80 22 3 20 -1 22 -52 22 -49 0
-56 2 -56 20 0 17 7 20 50 20 47 0 50 2 50 25 0 23 -3 25 -51 25 -43 0 -50 3
-47 18 3 14 12 16 56 14 50 -4 52 -3 52 22 0 26 -1 26 -80 26 l-80 0 0 -107z"/>
<path d="M6412 4195 c-23 -53 -42 -103 -42 -110 0 -18 41 -11 56 10 15 21 100
21 108 0 3 -9 18 -15 35 -15 l29 0 -44 103 c-39 93 -46 102 -72 105 -27 3 -30
-1 -70 -93z m82 3 c9 -35 8 -38 -18 -38 -23 0 -24 2 -13 30 14 36 23 38 31 8z"/>
<path d="M6670 4186 c0 -83 3 -105 15 -110 26 -10 45 5 45 35 0 39 32 39 60 0
40 -57 95 -53 60 5 -20 31 -20 35 -6 56 24 34 20 73 -10 97 -21 17 -41 21 -95
21 l-69 0 0 -104z m128 32 c-2 -18 -11 -24 -35 -26 -30 -3 -33 -1 -33 22 0 23
4 26 36 26 31 0 35 -3 32 -22z"/>
<path d="M340 4177 c-28 -14 -38 -51 -20 -72 7 -8 30 -20 52 -25 29 -8 38 -16
36 -28 -4 -22 -51 -28 -68 -8 -14 17 -40 22 -40 7 0 -5 12 -19 27 -31 44 -34
113 -13 113 35 0 28 -20 46 -63 54 -23 5 -32 12 -32 26 0 25 46 33 65 11 16
-20 30 -21 30 -2 0 31 -62 52 -100 33z"/>
<path d="M915 4178 c-28 -16 -36 -31 -24 -43 7 -7 15 -4 24 8 14 20 56 20 62
1 2 -6 -17 -36 -42 -67 -25 -31 -45 -58 -45 -61 0 -3 27 -6 60 -6 33 0 60 4
60 10 0 6 -16 10 -35 10 -19 0 -35 3 -35 6 0 4 14 22 30 41 29 33 37 66 22 90
-11 18 -55 24 -77 11z"/>
<path d="M1108 4175 c-32 -18 -43 -51 -35 -102 8 -48 29 -67 73 -67 48 0 74
31 74 89 0 72 -55 111 -112 80z m73 -31 c7 -9 13 -31 13 -49 0 -18 -6 -40 -13
-49 -16 -19 -52 -21 -69 -4 -16 16 -16 90 0 106 17 17 53 15 69 -4z"/>
<path d="M110 4095 l0 -85 60 0 c71 0 81 18 13 22 -41 3 -48 6 -51 26 -3 20 1
22 42 22 34 0 46 4 46 15 0 11 -12 15 -46 15 -41 0 -45 2 -42 23 3 19 10 22
51 25 68 4 58 22 -13 22 l-60 0 0 -85z"/>
<path d="M500 4170 c0 -5 14 -10 30 -10 l30 0 0 -75 c0 -60 3 -75 15 -75 12 0
15 15 15 75 l0 75 30 0 c17 0 30 5 30 10 0 6 -32 10 -75 10 -43 0 -75 -4 -75
-10z"/>
<path d="M1303 4170 c-32 -13 -30 -34 2 -26 25 6 25 5 25 -54 0 -57 -1 -60
-25 -60 -14 0 -25 -4 -25 -10 0 -6 27 -10 60 -10 33 0 60 4 60 10 0 6 -9 10
-20 10 -18 0 -20 7 -20 75 0 81 -5 86 -57 65z"/>
<path d="M1470 4140 c0 -37 2 -40 28 -40 37 0 65 -21 60 -46 -4 -25 -44 -30
-68 -9 -13 12 -20 13 -25 5 -11 -18 21 -43 55 -43 38 0 63 22 63 58 0 33 -12
45 -55 54 -49 10 -43 35 10 39 61 5 52 22 -13 22 l-55 0 0 -40z"/>
<path d="M685 4030 c-7 -12 2 -30 16 -30 12 0 12 27 0 35 -5 3 -12 1 -16 -5z"/>
<path d="M90 3885 c0 -3 42 -78 94 -168 l94 -162 208 -838 209 -837 199 2 200
3 150 502 c83 276 154 496 157 490 4 -7 55 -185 113 -397 59 -212 115 -414
126 -450 10 -36 23 -84 30 -107 l11 -43 198 0 199 0 14 58 c9 31 34 125 57
207 84 298 138 494 296 1070 l96 350 94 157 c52 87 95 160 95 163 0 3 -157 5
-350 5 -192 0 -350 -3 -350 -7 0 -4 28 -77 62 -162 l62 -155 -99 -395 c-54
-218 -101 -401 -104 -408 -3 -6 -39 118 -80 275 -40 158 -106 413 -146 567
l-72 280 -174 0 -173 0 -108 -375 c-180 -628 -222 -770 -225 -766 -5 5 -193
795 -193 811 0 9 27 84 60 168 33 85 60 156 60 160 0 4 -182 7 -405 7 -223 0
-405 -2 -405 -5z"/>
<path d="M2705 3740 l-75 -150 0 -706 0 -706 76 -149 76 -149 537 0 536 0 78
155 77 155 0 695 0 695 -77 155 -78 155 -537 0 -538 0 -75 -150z m790 -240
c23 -44 23 -1196 0 -1241 l-16 -29 -162 2 c-161 3 -161 3 -174 28 -18 35 -19
1206 -1 1245 l11 25 163 0 163 0 16 -30z"/>
<path d="M4146 3743 l-76 -146 -1 -711 0 -711 76 -148 77 -147 536 2 536 3 78
150 78 150 0 698 0 698 -77 154 -78 155 -537 0 -537 0 -75 -147z m789 -243
c22 -43 23 -1182 1 -1235 l-15 -35 -160 0 c-154 0 -160 1 -175 22 -14 20 -16
96 -16 625 0 436 3 609 12 628 l11 25 163 0 163 0 16 -30z"/>
<path d="M5505 3858 c7 -18 43 -93 79 -166 l66 -132 0 -681 0 -682 -80 -154
c-44 -85 -80 -156 -80 -158 0 -3 312 -5 693 -5 l692 0 78 153 77 152 0 704 0
703 -77 149 -78 149 -692 0 -692 0 14 -32z m1013 -353 c9 -19 12 -192 12 -628
0 -536 -2 -605 -16 -625 -16 -23 -18 -23 -215 -21 -109 1 -199 6 -199 11 0 5
11 31 25 58 l25 49 0 536 0 536 -25 49 c-14 27 -25 52 -25 55 0 3 92 5 203 5
l204 0 11 -25z"/>
<path d="M930 1425 c0 -158 4 -245 10 -245 6 0 62 27 125 61 l115 61 0 49 0
49 50 0 50 0 0 -520 0 -520 -60 -120 c-33 -66 -60 -124 -60 -130 0 -11 612
-15 623 -4 3 4 -21 60 -54 125 l-59 119 0 525 0 525 45 0 45 0 0 -50 0 -50
120 -60 120 -60 0 -421 0 -421 63 -119 62 -119 415 0 415 0 63 120 62 120 0
547 0 548 -59 115 -59 115 -421 3 -421 2 -49 -97 -50 -98 0 98 -1 97 -545 0
-545 0 0 -245z m1750 -54 c6 -13 10 -184 10 -486 0 -302 -4 -473 -10 -486 -10
-17 -22 -19 -141 -19 l-129 0 -10 26 c-14 35 -13 939 0 965 10 17 22 19 140
19 118 0 130 -2 140 -19z"/>
<path d="M3004 1655 c3 -9 35 -65 70 -125 l64 -108 157 -629 c86 -345 161
-643 166 -660 l11 -33 148 0 c132 0 150 2 158 18 5 9 60 187 122 395 62 207
115 375 117 373 3 -3 60 -203 138 -486 20 -74 47 -171 60 -215 l22 -80 154 0
154 0 28 100 c15 55 47 172 72 260 76 278 155 564 209 761 48 172 59 201 116
297 35 59 66 107 69 107 3 -1 27 -47 54 -103 l48 -102 -1 -538 0 -537 -60
-120 c-33 -66 -60 -122 -60 -125 0 -3 124 -5 275 -5 151 0 275 2 275 5 0 3
-27 59 -60 125 l-60 120 2 249 3 248 219 -374 218 -374 142 3 141 3 5 670 5
670 58 106 c31 59 57 110 57 113 0 3 -124 6 -275 6 l-274 0 64 -131 65 -132 0
-253 c0 -140 -3 -254 -7 -254 -5 0 -21 24 -37 53 -15 28 -112 202 -214 385
l-185 332 -463 0 c-255 0 -464 -2 -464 -6 0 -3 21 -59 47 -126 l47 -121 -78
-314 c-43 -173 -81 -312 -83 -309 -4 4 -125 468 -200 769 l-27 107 -136 0
-136 0 -129 -452 c-106 -367 -131 -446 -137 -422 -5 16 -39 161 -77 323 l-70
293 25 64 c13 35 35 93 49 129 l25 65 -316 0 c-280 0 -315 -2 -310 -15z"/>
</g>
</svg>
